<?xml version="1.0" encoding="utf-8"?>
<!-- Generator: Adobe Illustrator 25.2.0, SVG Export Plug-In . SVG Version: 6.00 Build 0)  -->
<svg version="1.1" id="Layer_1" xmlns="http://www.w3.org/2000/svg" xmlns:xlink="http://www.w3.org/1999/xlink" x="0px" y="0px"
	 viewBox="0 0 600 500.52" style="enable-background:new 0 0 600 500.52;" xml:space="preserve">
<style type="text/css">
	.st0{fill:#FFFFFF;stroke:#000000;stroke-miterlimit:10;}
	.st1{fill:#C2B59B;}
	.st2{fill:#9B8579;}
	.st3{font-family:'MyriadPro-Regular';}
	.st4{font-size:19.5224px;}
</style>
<g>
	<g>
		<rect x="100" y="0.52" class="st0" width="100" height="100"/>
		<rect x="100" y="100.52" class="st0" width="100" height="100"/>
		<rect x="200" y="0.52" class="st0" width="100" height="100"/>
		<rect x="200" y="100.52" class="st0" width="100" height="100"/>
		<rect y="100.52" class="st0" width="100" height="100"/>
		<rect x="100" y="200.52" class="st0" width="100" height="100"/>
		<rect x="200" y="200.52" class="st0" width="100" height="100"/>
		<rect y="200.52" class="st0" width="100" height="100"/>
		<rect y="0.52" class="st0" width="100" height="100"/>
	</g>
	<g>
		<rect x="101" y="101.52" class="st1" width="98" height="98"/>
		<path class="st2" d="M198,102.52v96h-96v-96H198 M200,100.52H100v100h100V100.52L200,100.52z"/>
	</g>
	<g>
		<rect x="101" y="1.52" class="st1" width="98" height="98"/>
		<path class="st2" d="M198,2.52v96h-96v-96H198 M200,0.52H100v100h100V0.52L200,0.52z"/>
	</g>
	<g>
		<rect x="201" y="101.52" class="st1" width="98" height="98"/>
		<path class="st2" d="M298,102.52v96h-96v-96H298 M300,100.52H200v100h100V100.52L300,100.52z"/>
	</g>
	<g>
		<rect x="201" y="1.52" class="st1" width="98" height="98"/>
		<path class="st2" d="M298,2.52v96h-96v-96H298 M300,0.52H200v100h100V0.52L300,0.52z"/>
	</g>
	<g>
		<rect x="1" y="101.52" class="st1" width="98" height="98"/>
		<path class="st2" d="M98,102.52v96H2v-96H98 M100,100.52H0v100h100V100.52L100,100.52z"/>
	</g>
	<g>
		<rect x="101" y="201.52" class="st1" width="98" height="98"/>
		<path class="st2" d="M198,202.52v96h-96v-96H198 M200,200.52H100v100h100V200.52L200,200.52z"/>
	</g>
	<g>
		<rect x="201" y="201.52" class="st1" width="98" height="98"/>
		<path class="st2" d="M298,202.52v96h-96v-96H298 M300,200.52H200v100h100V200.52L300,200.52z"/>
	</g>
	<g>
		<rect x="1" y="201.52" class="st1" width="98" height="98"/>
		<path class="st2" d="M98,202.52v96H2v-96H98 M100,200.52H0v100h100V200.52L100,200.52z"/>
	</g>
	<g>
		<rect x="1" y="1.52" class="st1" width="98" height="98"/>
		<path class="st2" d="M98,2.52v96H2v-96H98 M100,0.52H0v100h100V0.52L100,0.52z"/>
	</g>
	<g>
		<g>
			<path class="st2" d="M277.82,10.52c6.72,0,12.18,5.47,12.18,12.18v255.63c0,6.72-5.47,12.18-12.18,12.18H22.18
				c-6.72,0-12.18-5.47-12.18-12.18V22.7c0-6.72,5.47-12.18,12.18-12.18H277.82 M277.82,0.52H22.18C9.93,0.52,0,10.45,0,22.7v255.63
				c0,12.25,9.93,22.18,22.18,22.18h255.63c12.25,0,22.18-9.93,22.18-22.18V22.7C300,10.45,290.07,0.52,277.82,0.52L277.82,0.52z"/>
		</g>
		<g>
			<path class="st2" d="M290,10.52v280H10v-280H290 M300,0.52H0v300h300V0.52L300,0.52z"/>
		</g>
	</g>
</g>
<g>
	<g>
		<rect x="301" y="301.52" class="st1" width="98" height="98"/>
		<path class="st2" d="M398,302.52v96h-96v-96H398 M400,300.52H300v100h100V300.52L400,300.52z"/>
	</g>
	<g>
		<rect x="301" y="201.52" class="st1" width="98" height="98"/>
		<path class="st2" d="M398,202.52v96h-96v-96H398 M400,200.52H300v100h100V200.52L400,200.52z"/>
	</g>
	<g>
		<rect x="301" y="101.52" class="st1" width="98" height="98"/>
		<path class="st2" d="M398,102.52v96h-96v-96H398 M400,100.52H300v100h100V100.52L400,100.52z"/>
	</g>
	<g>
		<rect x="301" y="401.52" class="st1" width="98" height="98"/>
		<path class="st2" d="M398,402.52v96h-96v-96H398 M400,400.52H300v100h100V400.52L400,400.52z"/>
	</g>
	<g>
		<rect x="401" y="301.52" class="st1" width="98" height="98"/>
		<path class="st2" d="M498,302.52v96h-96v-96H498 M500,300.52H400v100h100V300.52L500,300.52z"/>
	</g>
	<g>
		<rect x="101" y="301.52" class="st1" width="98" height="98"/>
		<path class="st2" d="M198,302.52v96h-96v-96H198 M200,300.52H100v100h100V300.52L200,300.52z"/>
	</g>
	<g>
		<rect x="201" y="301.52" class="st1" width="98" height="98"/>
		<path class="st2" d="M298,302.52v96h-96v-96H298 M300,300.52H200v100h100V300.52L300,300.52z"/>
	</g>
	<g>
		<g>
			<path class="st2" d="M390,110.52v190c0,5.52,4.48,10,10,10h90v80h-90c-5.52,0-10,4.48-10,10v90h-80v-90c0-5.52-4.48-10-10-10H110
				v-80h190c5.52,0,10-4.48,10-10v-190H390 M400,100.52H300v200H100v100h200v100h100v-100h100v-100H400V100.52L400,100.52z"/>
		</g>
		<g>
			<path class="st2" d="M378.54,110.52c6.32,0,11.46,5.14,11.46,11.46v157.08c0,17.35,14.11,31.46,31.46,31.46h57.08
				c6.32,0,11.46,5.14,11.46,11.46v57.08c0,6.32-5.14,11.46-11.46,11.46h-57.08c-17.35,0-31.46,14.11-31.46,31.46v57.08
				c0,6.32-5.14,11.46-11.46,11.46h-57.08c-6.32,0-11.46-5.14-11.46-11.46v-57.08c0-17.35-14.11-31.46-31.46-31.46H121.46
				c-6.32,0-11.46-5.14-11.46-11.46v-57.08c0-6.32,5.14-11.46,11.46-11.46h157.08c17.35,0,31.46-14.11,31.46-31.46V121.98
				c0-6.32,5.14-11.46,11.46-11.46H378.54 M378.54,100.52h-57.08c-11.85,0-21.46,9.61-21.46,21.46v157.08
				c0,11.85-9.61,21.46-21.46,21.46H121.46c-11.85,0-21.46,9.61-21.46,21.46v57.08c0,11.85,9.61,21.46,21.46,21.46h157.08
				c11.85,0,21.46,9.61,21.46,21.46v57.08c0,11.85,9.61,21.46,21.46,21.46h57.08c11.85,0,21.46-9.61,21.46-21.46v-57.08
				c0-11.85,9.61-21.46,21.46-21.46h57.08c11.85,0,21.46-9.61,21.46-21.46v-57.08c0-11.85-9.61-21.46-21.46-21.46h-57.08
				c-11.85,0-21.46-9.61-21.46-21.46V121.98C400,110.13,390.39,100.52,378.54,100.52L378.54,100.52z"/>
		</g>
	</g>
</g>
<g>
	<g>
		<rect x="305" y="5.52" class="st1" width="90" height="90"/>
		<path class="st2" d="M390,10.52v80h-80v-80H390 M400,0.52H300v100h100V0.52L400,0.52z"/>
	</g>
	<g>
		<path class="st1" d="M321.04,95.52c-8.85,0-16.04-7.2-16.04-16.04V21.56c0-8.85,7.2-16.04,16.04-16.04h57.92
			c8.85,0,16.04,7.2,16.04,16.04v57.92c0,8.85-7.2,16.04-16.04,16.04H321.04z"/>
		<path class="st2" d="M378.96,10.52c6.09,0,11.04,4.95,11.04,11.04v57.92c0,6.09-4.95,11.04-11.04,11.04h-57.92
			c-6.09,0-11.04-4.95-11.04-11.04V21.56c0-6.09,4.95-11.04,11.04-11.04H378.96 M378.96,0.52h-57.92C309.42,0.52,300,9.94,300,21.56
			v57.92c0,11.62,9.42,21.04,21.04,21.04h57.92c11.62,0,21.04-9.42,21.04-21.04V21.56C400,9.94,390.58,0.52,378.96,0.52L378.96,0.52
			z"/>
	</g>
</g>
<g>
	<g>
		<rect x="401" y="201.52" class="st1" width="98" height="98"/>
		<path class="st2" d="M498,202.52v96h-96v-96H498 M500,200.52H400v100h100V200.52L500,200.52z"/>
	</g>
	<g>
		<rect x="501" y="201.52" class="st1" width="98" height="98"/>
		<path class="st2" d="M598,202.52v96h-96v-96H598 M600,200.52H500v100h100V200.52L600,200.52z"/>
	</g>
	<g>
		<rect x="401" y="101.52" class="st1" width="98" height="98"/>
		<path class="st2" d="M498,102.52v96h-96v-96H498 M500,100.52H400v100h100V100.52L500,100.52z"/>
	</g>
	<g>
		<rect x="501" y="101.52" class="st1" width="98" height="98"/>
		<path class="st2" d="M598,102.52v96h-96v-96H598 M600,100.52H500v100h100V100.52L600,100.52z"/>
	</g>
	<g>
		<path class="st2" d="M590,110.52v180H410v-180H590 M600,100.52H400v200h200V100.52L600,100.52z"/>
	</g>
	<g>
		<path class="st2" d="M579.84,110.52c5.6,0,10.16,4.56,10.16,10.16v159.67c0,5.6-4.56,10.16-10.16,10.16H420.16
			c-5.6,0-10.16-4.56-10.16-10.16V120.68c0-5.6,4.56-10.16,10.16-10.16H579.84 M579.84,100.52H420.16
			c-11.14,0-20.16,9.03-20.16,20.16v159.67c0,11.14,9.03,20.16,20.16,20.16h159.67c11.14,0,20.16-9.03,20.16-20.16V120.68
			C600,109.55,590.97,100.52,579.84,100.52L579.84,100.52z"/>
	</g>
	<g>
		<circle class="st2" cx="500" cy="200.12" r="9"/>
		<path class="st2" d="M500,192.12c4.41,0,8,3.59,8,8c0,4.41-3.59,8-8,8s-8-3.59-8-8S495.59,192.12,500,192.12 M500,190.12
			L500,190.12c-5.52,0-10,4.48-10,10v0c0,5.52,4.48,10,10,10h0c5.52,0,10-4.48,10-10v0C510,194.6,505.52,190.12,500,190.12
			L500,190.12z"/>
	</g>
</g>
<text transform="matrix(0.9338 0 0 1 506.7917 50.5199)" class="st3 st4">BaseTileSet</text>
</svg>
